<svg id="visual" viewBox="0 0 900 600" width="900" height="600" xmlns="http://www.w3.org/2000/svg" xmlns:xlink="http://www.w3.org/1999/xlink" version="1.1"><path d="M0 395L113 452L225 411L338 396L450 418L563 416L675 441L788 413L900 460L900 601L788 601L675 601L563 601L450 601L338 601L225 601L113 601L0 601Z" fill="#f5730a"></path><path d="M0 473L113 455L225 493L338 460L450 453L563 438L675 498L788 474L900 464L900 601L788 601L675 601L563 601L450 601L338 601L225 601L113 601L0 601Z" fill="#d15308"></path><path d="M0 491L113 537L225 504L338 501L450 504L563 484L675 508L788 499L900 492L900 601L788 601L675 601L563 601L450 601L338 601L225 601L113 601L0 601Z" fill="#ac3505"></path><path d="M0 553L113 572L225 540L338 529L450 534L563 539L675 546L788 529L900 551L900 601L788 601L675 601L563 601L450 601L338 601L225 601L113 601L0 601Z" fill="#871400"></path></svg>