<svg id="visual" viewBox="0 0 900 600" width="900" height="600" xmlns="http://www.w3.org/2000/svg" xmlns:xlink="http://www.w3.org/1999/xlink" version="1.1"><rect x="0" y="0" width="900" height="600" fill="#001220"></rect><path d="M0 232L21.5 225.3C43 218.7 86 205.3 128.8 201.7C171.7 198 214.3 204 257.2 206C300 208 343 206 385.8 205C428.7 204 471.3 204 514.2 199C557 194 600 184 642.8 175.8C685.7 167.7 728.3 161.3 771.2 158.7C814 156 857 157 878.5 157.5L900 158L900 0L878.5 0C857 0 814 0 771.2 0C728.3 0 685.7 0 642.8 0C600 0 557 0 514.2 0C471.3 0 428.7 0 385.8 0C343 0 300 0 257.2 0C214.3 0 171.7 0 128.8 0C86 0 43 0 21.5 0L0 0Z" fill="#fa7268"></path><path d="M0 137L21.5 134.5C43 132 86 127 128.8 135.8C171.7 144.7 214.3 167.3 257.2 171.5C300 175.7 343 161.3 385.8 152.2C428.7 143 471.3 139 514.2 139.7C557 140.3 600 145.7 642.8 147C685.7 148.3 728.3 145.7 771.2 150.7C814 155.7 857 168.3 878.5 174.7L900 181L900 0L878.5 0C857 0 814 0 771.2 0C728.3 0 685.7 0 642.8 0C600 0 557 0 514.2 0C471.3 0 428.7 0 385.8 0C343 0 300 0 257.2 0C214.3 0 171.7 0 128.8 0C86 0 43 0 21.5 0L0 0Z" fill="#ef5f67"></path><path d="M0 108L21.5 110.3C43 112.7 86 117.3 128.8 126.2C171.7 135 214.3 148 257.2 145.3C300 142.7 343 124.3 385.8 123.8C428.7 123.3 471.3 140.7 514.2 141C557 141.3 600 124.7 642.8 115.2C685.7 105.7 728.3 103.3 771.2 107C814 110.7 857 120.3 878.5 125.2L900 130L900 0L878.5 0C857 0 814 0 771.2 0C728.3 0 685.7 0 642.8 0C600 0 557 0 514.2 0C471.3 0 428.7 0 385.8 0C343 0 300 0 257.2 0C214.3 0 171.7 0 128.8 0C86 0 43 0 21.5 0L0 0Z" fill="#e34c67"></path><path d="M0 90L21.5 92.5C43 95 86 100 128.8 95C171.7 90 214.3 75 257.2 70.8C300 66.7 343 73.3 385.8 76.2C428.7 79 471.3 78 514.2 75C557 72 600 67 642.8 73.5C685.7 80 728.3 98 771.2 97C814 96 857 76 878.5 66L900 56L900 0L878.5 0C857 0 814 0 771.2 0C728.3 0 685.7 0 642.8 0C600 0 557 0 514.2 0C471.3 0 428.7 0 385.8 0C343 0 300 0 257.2 0C214.3 0 171.7 0 128.8 0C86 0 43 0 21.5 0L0 0Z" fill="#d53867"></path><path d="M0 40L21.5 40.2C43 40.3 86 40.7 128.8 42.7C171.7 44.7 214.3 48.3 257.2 49C300 49.7 343 47.3 385.8 49.5C428.7 51.7 471.3 58.3 514.2 57.2C557 56 600 47 642.8 40.8C685.7 34.7 728.3 31.3 771.2 29.5C814 27.7 857 27.3 878.5 27.2L900 27L900 0L878.5 0C857 0 814 0 771.2 0C728.3 0 685.7 0 642.8 0C600 0 557 0 514.2 0C471.3 0 428.7 0 385.8 0C343 0 300 0 257.2 0C214.3 0 171.7 0 128.8 0C86 0 43 0 21.5 0L0 0Z" fill="#c62368"></path></svg>